<svg width="379" height="379" viewBox="0 0 379 379" fill="none" xmlns="http://www.w3.org/2000/svg">
<path d="M260.052 364.874C249.681 375.247 229.604 380.628 215.437 376.83L72.2452 338.464C58.0785 334.666 43.3812 319.969 39.5865 305.802L1.21716 162.609C-2.5775 148.442 2.80115 128.366 13.1732 117.994L117.996 13.1716C128.368 2.80226 148.444 -2.5791 162.611 1.21824L305.801 39.5849C319.968 43.3822 334.664 58.0783 338.461 72.2449L376.829 215.437C380.627 229.604 375.246 249.682 364.876 260.052L260.052 364.874Z" fill="#E7F4FC"/>
<path d="M298.884 268.245H308.261V282.701H298.884V268.245Z" fill="#B5D1DE"/>
<path d="M298.884 268.245H308.261V282.701H298.884V268.245Z" stroke="#477CA8" stroke-width="4" stroke-miterlimit="10"/>
<path d="M326.405 138.701C328.472 139.504 330.529 140.4 332.552 141.43C365.384 158.014 378.553 198.076 361.969 230.917C345.382 263.748 305.322 276.917 272.484 260.336C270.461 259.316 268.516 258.205 266.645 257.006" stroke="#477CA8" stroke-width="4" stroke-miterlimit="10"/>
<path d="M256.616 289.768C256.818 284.672 260.994 280.6 266.14 280.6H341.008C346.157 280.6 350.33 284.672 350.533 289.768H256.616Z" fill="#B5D1DE"/>
<path d="M256.616 289.768C256.818 284.672 260.994 280.6 266.14 280.6H341.008C346.157 280.6 350.33 284.672 350.533 289.768H256.616Z" stroke="#477CA8" stroke-width="4" stroke-miterlimit="10"/>
<path d="M274.439 245.275L263.708 266.358" stroke="#477CA8" stroke-width="4" stroke-miterlimit="10"/>
<path d="M332.486 131.232L322.245 151.352" stroke="#477CA8" stroke-width="4" stroke-miterlimit="10"/>
<path d="M324.03 154.229C298.414 142.942 268.389 154.606 257.105 180.222C245.82 205.834 257.481 235.855 283.096 247.142C308.716 258.427 338.738 246.769 350.022 221.154C361.308 195.542 349.648 165.515 324.03 154.229" fill="#B5D1DE"/>
<path d="M354.645 207.317L347.392 212.966L334.305 223.978L333.72 213.292L325.225 214.825L324.281 204.981L318.44 208.101L316.753 206.798L311.724 201.774L310.126 208.612L313.968 212.492L297.141 228.85L292.568 229.574L292.544 220.749L295.83 207.406L289.844 204.469L289.238 198.728L296.824 190.756L302.445 191.8L304.698 195.281L313.009 196.746L306.745 188.581L300.37 184.368L300.928 182.136L309.261 181.21L308.348 175.621L317.784 172.469L323.87 178.153L337.465 179.677C337.465 179.677 343.5 179.224 350.233 178.762C354.297 187.561 355.913 197.453 354.645 207.317" fill="#D8E9C9"/>
<path d="M293.079 167.894L292.643 154.261C302.167 153.725 307.787 155.137 309.887 155.822L303.017 165.193L293.079 167.894" fill="#D8E9C9"/>
<path d="M303.639 145.921C281.895 145.921 262.192 158.752 253.444 178.609C241.271 206.24 253.849 238.626 281.483 250.804C288.484 253.886 295.889 255.45 303.493 255.45C325.236 255.45 344.936 242.622 353.682 222.768C359.572 209.402 359.896 194.524 354.593 180.872C349.292 167.22 339.011 156.458 325.644 150.569C318.645 147.485 311.243 145.921 303.639 145.921V145.921ZM303.639 149.921C310.464 149.921 317.396 151.305 324.03 154.229C349.648 165.516 361.308 195.542 350.022 221.154C341.661 240.134 323.016 251.45 303.493 251.45C296.668 251.45 289.732 250.066 283.096 247.142C257.481 235.856 245.82 205.834 257.105 180.222C265.467 161.242 284.117 149.921 303.639 149.921" fill="#477CA8"/>
<path d="M142.64 252.434V276.434C142.64 283.8 136.671 289.768 129.307 289.768H209.305C201.943 289.768 195.972 283.8 195.972 276.434V252.434H142.64Z" fill="#D8E5ED"/>
<path d="M142.64 252.434V276.434C142.64 283.8 136.671 289.768 129.307 289.768H209.305C201.943 289.768 195.972 283.8 195.972 276.434V252.434H142.64Z" stroke="#477CA8" stroke-width="4"/>
<path d="M291.851 227.931V83.1634C291.851 79.4261 288.807 76.3847 285.067 76.3847H51.1319C47.3946 76.3847 44.356 79.4261 44.356 83.1634V227.931H291.851" fill="#D8E5ED"/>
<path d="M291.851 227.931V83.1634C291.851 79.4261 288.807 76.3847 285.067 76.3847H51.1319C47.3946 76.3847 44.356 79.4261 44.356 83.1634V227.931H291.851Z" stroke="#477CA8" stroke-width="4"/>
<path d="M57.4106 214.418V89.7422H278.537V214.418H57.4106Z" fill="white"/>
<path d="M44.2119 227.786V248.661C44.2119 252.663 48.316 257.125 52.316 257.125H285.687C289.692 257.125 292.083 253.01 292.083 249.005V227.786H44.2119Z" fill="white"/>
<path d="M44.2119 227.786V248.661C44.2119 252.663 48.316 257.125 52.316 257.125H285.687C289.692 257.125 292.083 253.01 292.083 249.005V227.786H44.2119Z" stroke="#477CA8" stroke-width="4"/>
<path d="M98.1345 127.102V208.436" stroke="#D8E5ED" stroke-width="1.33333"/>
<path d="M110.801 127.102V208.436" stroke="#D8E5ED" stroke-width="1.33333"/>
<path d="M123.468 127.102V208.436" stroke="#D8E5ED" stroke-width="1.33333"/>
<path d="M136.135 127.102V208.436" stroke="#D8E5ED" stroke-width="1.33333"/>
<path d="M148.801 127.102V208.436" stroke="#D8E5ED" stroke-width="1.33333"/>
<path d="M161.468 127.102V208.436" stroke="#D8E5ED" stroke-width="1.33333"/>
<path d="M174.134 127.102V208.436" stroke="#D8E5ED" stroke-width="1.33333"/>
<path d="M186.801 127.102V208.436" stroke="#D8E5ED" stroke-width="1.33333"/>
<path d="M199.468 127.102V208.436" stroke="#D8E5ED" stroke-width="1.33333"/>
<path d="M212.134 127.102V208.436" stroke="#D8E5ED" stroke-width="1.33333"/>
<path d="M224.801 127.102V208.436" stroke="#D8E5ED" stroke-width="1.33333"/>
<path d="M237.468 127.102V208.436" stroke="#D8E5ED" stroke-width="1.33333"/>
<path d="M250.134 127.102V208.436" stroke="#D8E5ED" stroke-width="1.33333"/>
<path d="M262.801 127.102V208.436" stroke="#D8E5ED" stroke-width="1.33333"/>
<path d="M104.801 126.373V130.498" stroke="#D8E5ED" stroke-width="4"/>
<path d="M117.468 126.373V130.498" stroke="#D8E5ED" stroke-width="4"/>
<path d="M130.135 126.373V130.498" stroke="#D8E5ED" stroke-width="4"/>
<path d="M142.801 126.373V130.498" stroke="#D8E5ED" stroke-width="4"/>
<path d="M155.468 126.373V130.498" stroke="#D8E5ED" stroke-width="4"/>
<path d="M168.134 126.373V130.498" stroke="#D8E5ED" stroke-width="4"/>
<path d="M180.801 126.373V130.498" stroke="#D8E5ED" stroke-width="4"/>
<path d="M193.468 126.373V130.498" stroke="#D8E5ED" stroke-width="4"/>
<path d="M206.134 126.373V130.498" stroke="#D8E5ED" stroke-width="4"/>
<path d="M218.801 126.373V130.498" stroke="#D8E5ED" stroke-width="4"/>
<path d="M231.468 126.373V130.498" stroke="#D8E5ED" stroke-width="4"/>
<path d="M244.134 126.373V130.498" stroke="#D8E5ED" stroke-width="4"/>
<path d="M256.801 126.373V130.498" stroke="#D8E5ED" stroke-width="4"/>
<path d="M269.468 126.373V130.498" stroke="#D8E5ED" stroke-width="4"/>
<path d="M86.2692 118.97V116.572C86.2692 113.917 84.1185 111.769 81.4678 111.769H73.0692C70.4185 111.769 68.2705 113.917 68.2705 116.572V118.97H86.2692Z" fill="#B5D1DE"/>
<path d="M81.468 103.97C81.468 101.651 79.588 99.7715 77.2706 99.7715C74.9493 99.7715 73.0693 101.651 73.0693 103.97C73.0693 106.29 74.9493 108.17 77.2706 108.17C79.588 108.17 81.468 106.29 81.468 103.97Z" fill="#B5D1DE"/>
<path d="M94.5864 105.75H151.006" stroke="#B5D1DE" stroke-width="2.66667"/>
<path d="M68.2705 127.083H83.6105" stroke="#D8E5ED" stroke-width="2.66667"/>
<path d="M68.2705 133.75H88.3705" stroke="#D8E5ED" stroke-width="2.66667"/>
<path d="M68.2705 140.417H83.6105" stroke="#D8E5ED" stroke-width="2.66667"/>
<path d="M68.2705 147.083H85.7038" stroke="#D8E5ED" stroke-width="2.66667"/>
<path d="M68.2705 153.75H80.3705" stroke="#D8E5ED" stroke-width="2.66667"/>
<path d="M94.5864 112.922H132.356" stroke="#B5D1DE" stroke-width="2.66667"/>
<path d="M174.801 140.659H236.135" stroke="#F5B1AE" stroke-width="5.33333"/>
<path d="M111.69 154.881H173.024" stroke="#B0D9EF" stroke-width="5.33333"/>
<path d="M155.247 154.881H184.579" stroke="#D8E9C9" stroke-width="5.33333"/>
<path d="M143.69 169.102H236.134" stroke="#D8E9C9" stroke-width="5.33333"/>
<path d="M123.69 160.436H224.801" stroke="#FDF4BB" stroke-width="5.33333"/>
<path d="M99.0239 202.436H185.468" stroke="#FDF4BB" stroke-width="5.33333"/>
<path d="M127.69 183.323H156.134" stroke="#F5B1AE" stroke-width="5.33333"/>
<path d="M155.245 183.323H220.134" stroke="#B2DDC9" stroke-width="5.33333"/>
<path d="M174.801 197.545H236.135" stroke="#B0D9EF" stroke-width="5.33333"/>
<path d="M92.5452 273.154H110.495C113.711 273.154 116.316 270.549 116.316 267.33V240.87C116.316 237.656 113.711 235.049 110.495 235.049H92.5452" stroke="#477CA8" stroke-width="4" stroke-linejoin="round"/>
<path d="M100.097 219.91V279.712C100.097 285.265 95.5946 289.768 90.0412 289.768H43.4705C37.9159 289.768 33.4146 285.265 33.4146 279.712V219.91H100.097Z" fill="#F5B1AE"/>
<path d="M100.097 219.91V279.712C100.097 285.265 95.5946 289.768 90.0412 289.768H43.4705C37.9159 289.768 33.4146 285.265 33.4146 279.712V219.91H100.097Z" stroke="#477CA8" stroke-width="4" stroke-linecap="round"/>
<path d="M55.6438 190.098C61.1651 196.918 50.1198 203.742 55.6438 210.566" stroke="#477CA8" stroke-width="4"/>
<path d="M66.7572 210.566C61.2319 203.742 72.2772 196.918 66.7572 190.098" stroke="#477CA8" stroke-width="4"/>
<path d="M77.8705 210.566C72.3465 203.742 83.3945 196.918 77.8705 190.098" stroke="#477CA8" stroke-width="4"/>
<path d="M99.9187 278.165H72.5347" stroke="#477CA8" stroke-width="4" stroke-linejoin="round"/>
<path d="M69.1425 278.165H65.4905" stroke="#477CA8" stroke-width="4" stroke-linejoin="round"/>
<path d="M83.0945 241.527L71.4159 234.787L59.7385 241.527V259.33H71.4159H83.0945V241.527Z" fill="white"/>
<path d="M83.0945 241.527L71.4159 234.787L59.7385 241.527V259.33H71.4159H83.0945V241.527Z" stroke="#477CA8" stroke-width="4"/>
<path d="M71.416 219.314V241.746" stroke="#477CA8" stroke-width="4"/>
<path d="M107.245 289.768H245.912" stroke="#477CA8" stroke-width="4"/>
</svg>
