<svg width="412" height="350" viewBox="0 0 412 350" fill="none" xmlns="http://www.w3.org/2000/svg">
<path d="M148.187 349.14C126.187 349.14 99.1866 333.552 88.1866 314.5L27.3987 209.213C16.3987 190.16 16.3987 158.983 27.3987 139.929L88.1866 34.6413C99.1866 15.588 126.187 -4.26231e-05 148.187 -4.26231e-05H269.763C291.763 -4.26231e-05 318.763 15.588 329.763 34.6413L390.551 139.929C401.551 158.983 401.551 190.16 390.551 209.213L329.763 314.5C318.763 333.552 291.763 349.14 269.763 349.14H148.187" fill="#E7F4FC"/>
<path d="M208.035 256.973V249.601H212.069V220.385H208.035V213.005H403.083C406.687 213.005 409.62 216.177 409.62 220.073V249.908C409.62 253.804 406.687 256.973 403.083 256.973H208.035Z" fill="#FDF4BB"/>
<path d="M403.083 211.005H206.035V222.385H210.069V247.601H210.035H206.035V251.601V254.973V258.973H210.035H403.083C407.789 258.973 411.62 254.908 411.62 249.908V220.073C411.62 215.073 407.789 211.005 403.083 211.005ZM403.083 215.005C405.587 215.005 407.62 217.273 407.62 220.073V249.908C407.62 252.708 405.587 254.973 403.083 254.973H210.035V251.601H212.556C213.391 251.601 214.069 250.841 214.069 249.908V220.073C214.069 219.143 213.391 218.385 212.556 218.385H210.035V215.005H403.083Z" fill="#477CA8"/>
<path d="M208.035 256.973V249.601H212.069V220.385H208.035V213.005H327.897V256.973H208.035Z" fill="#FDF4BB"/>
<path d="M329.897 211.005H206.035V222.385H210.069V247.601H210.035H206.035V251.601V254.973V258.973H210.035H325.897H329.897V254.973V215.005V211.005ZM325.897 215.005V254.973H210.035V251.601H212.556C213.391 251.601 214.069 250.841 214.069 249.908V220.073C214.069 219.143 213.391 218.385 212.556 218.385H210.035V215.005H325.897Z" fill="#477CA8"/>
<path d="M215.383 250.268C215.396 250.151 215.403 250.031 215.403 249.908V220.073L215.383 219.719H403.083C403.117 219.719 403.26 219.833 403.26 220.073V249.908C403.26 250.148 403.116 250.268 403.083 250.268H215.383Z" fill="white"/>
<path d="M403.083 218.385H212.556C213.391 218.385 214.069 219.143 214.069 220.073V249.908C214.069 250.841 213.391 251.601 212.556 251.601H403.083C403.913 251.601 404.593 250.841 404.593 249.908V220.073C404.593 219.143 403.913 218.385 403.083 218.385ZM401.927 221.052V248.935H216.736V221.052H401.927Z" fill="#477CA8"/>
<path d="M212.828 250.268C212.841 250.151 212.848 250.031 212.848 249.908V220.073L212.828 219.719H331.48C331.525 219.719 331.66 219.844 331.66 220.073V249.908C331.66 250.14 331.525 250.268 331.48 250.268H212.828Z" fill="#D8E5ED"/>
<path d="M331.48 218.385H210.001C210.836 218.385 211.515 219.143 211.515 220.073V249.908C211.515 250.841 210.836 251.601 210.001 251.601H331.48C332.315 251.601 332.993 250.841 332.993 249.908V220.073C332.993 219.143 332.315 218.385 331.48 218.385ZM330.327 221.052V248.935H214.181V221.052H330.327Z" fill="#477CA8"/>
<path d="M379.863 267.197L387.703 262.32L395.541 267.197V238.459H387.703H379.863V267.197Z" fill="#F5B1AE"/>
<path d="M379.863 267.197L380.567 268.329L387.703 263.891L396.875 269.597V237.124H387.703H378.529V269.596L380.567 268.329L379.863 267.197H381.196V239.791L387.703 239.792H394.208V264.797L387.703 260.749L379.159 266.065L379.863 267.197H381.196H379.863" fill="#477CA8"/>
<path d="M234.757 147.197C235.572 151.916 236.013 156.935 236.013 162.14C236.013 168.004 235.45 173.628 234.424 178.859H358.64V147.197H234.757Z" fill="#D8E5ED"/>
<path d="M363.601 142.235H233.416C232.631 142.235 231.997 142.869 231.997 143.653V148.473H290.497V177.58H231.997V182.401C231.997 183.185 232.631 183.82 233.416 183.82H363.601C364.385 183.82 365.02 183.185 365.02 182.401V143.653C365.02 142.869 364.385 142.235 363.601 142.235Z" fill="#B2DDC9"/>
<path d="M363.601 142.235V140.235H233.416C231.525 140.235 229.997 141.767 229.997 143.653V150.473H288.496V175.58H229.997V182.401C229.997 184.288 231.525 185.82 233.416 185.82H363.601C365.491 185.819 367.019 184.289 367.02 182.401V143.653C367.019 141.764 365.491 140.236 363.601 140.235V142.235V144.235V143.653H363.02C363.021 143.975 363.279 144.232 363.601 144.235V143.653H363.02V182.401H363.601V181.82C363.279 181.821 363.021 182.08 363.02 182.401H363.601V181.82H233.416V182.401H233.996C233.996 182.081 233.736 181.82 233.416 181.82V182.401H233.996V179.58H292.497V146.473H233.996V143.653H233.415L233.416 144.235C233.736 144.233 233.996 143.972 233.996 143.653H233.415L233.416 144.235H363.601V142.235" fill="#477CA8"/>
<path d="M395.736 142.235H295.083C295.864 142.235 296.501 142.869 296.501 143.653V182.401C296.501 183.185 295.864 183.82 295.083 183.82H395.736C396.52 183.82 397.153 183.185 397.153 182.401V143.653C397.153 142.869 396.52 142.235 395.736 142.235Z" fill="#B2DDC9"/>
<path d="M395.736 142.235V140.235H295.083V144.235V143.653H294.501C294.504 143.977 294.757 144.232 295.083 144.235V143.653H294.501L294.5 182.401H295.083V181.82C294.757 181.823 294.504 182.077 294.501 182.401H295.083V181.82V185.82H395.736C397.627 185.819 399.153 184.285 399.153 182.401V143.653C399.153 141.768 397.627 140.235 395.736 140.235V142.235V144.235V143.653H395.153C395.153 143.971 395.412 144.233 395.736 144.235V143.653H395.153V182.401H395.736V181.82C395.412 181.821 395.153 182.084 395.153 182.401H395.736V181.82H295.083V185.82C296.971 185.817 298.497 184.292 298.5 182.401L298.501 143.653C298.497 141.761 296.971 140.237 295.083 140.235V144.235H395.736V142.235Z" fill="#477CA8"/>
<path d="M382.788 209.12H380.324C379.515 209.12 378.852 208.347 378.852 207.393V188.989C378.852 188.044 379.515 187.264 380.324 187.264H382.788V183.815H226.452C224.007 183.815 222.027 186.135 222.027 188.989V207.393C222.027 210.252 224.007 212.571 226.452 212.571H382.788V209.12" fill="#F5B1AE"/>
<path d="M382.788 209.12V207.12H380.324V207.725L380.805 207.315C380.759 207.251 380.573 207.117 380.324 207.12V207.725L380.805 207.315L380.632 207.461L380.848 207.384L380.805 207.315L380.632 207.461L380.848 207.384L380.783 207.407L380.852 207.395L380.848 207.384L380.783 207.407L380.852 207.395V207.393V188.989H380.712L380.807 189.069L380.852 188.989H380.712L380.807 189.069L380.324 188.659V189.264C380.579 189.265 380.763 189.131 380.807 189.069L380.324 188.659V189.264H384.787V181.815H226.452C224.58 181.812 222.916 182.717 221.801 184.032C220.677 185.352 220.028 187.099 220.027 188.989V207.393C220.028 209.285 220.677 211.033 221.801 212.353C222.916 213.669 224.581 214.572 226.452 214.571H384.787V207.12H382.788V209.12H380.788V210.569H226.452C225.876 210.568 225.329 210.312 224.843 209.755C224.367 209.2 224.025 208.36 224.027 207.393V188.989C224.025 188.025 224.367 187.185 224.843 186.631C225.329 186.072 225.877 185.817 226.452 185.815H380.787L380.788 187.264H382.788V185.264H380.324C379.26 185.263 378.34 185.787 377.763 186.475C377.176 187.167 376.853 188.047 376.852 188.989V207.393C376.853 208.335 377.175 209.22 377.764 209.913C378.344 210.603 379.267 211.121 380.324 211.12H382.788V209.12H380.788H382.788" fill="#477CA8"/>
<path d="M382.788 209.12V207.12H380.324V207.725L380.805 207.315C380.759 207.251 380.573 207.117 380.324 207.12V207.725L380.805 207.315L380.632 207.461L380.848 207.384L380.805 207.315L380.632 207.461L380.848 207.384L380.783 207.407L380.852 207.395L380.848 207.384L380.783 207.407L380.852 207.395V207.393V188.989H380.712L380.807 189.069L380.852 188.989H380.712L380.807 189.069L380.324 188.659V189.264C380.579 189.265 380.763 189.131 380.807 189.069L380.324 188.659V189.264H384.787V181.815H299.668V214.571H384.787V207.12H382.788V209.12H380.788V210.569H303.668V185.815H380.787L380.788 187.264H382.788V185.264H380.324C379.26 185.263 378.34 185.787 377.763 186.475C377.176 187.167 376.853 188.047 376.852 188.989V207.393C376.853 208.335 377.175 209.22 377.764 209.913C378.344 210.603 379.267 211.121 380.324 211.12H382.788V209.12H380.788H382.788" fill="#477CA8"/>
<path d="M227.532 206.565V189.819H376.297V206.565H227.532Z" fill="#D8E5ED"/>
<path d="M227.532 206.565H228.865V191.152H374.964V205.232H227.532V206.565H228.865H227.532V207.899H377.631V188.485H226.199V207.899H227.532V206.565Z" fill="#477CA8"/>
<path d="M299.8 206.565V189.819H376.297V206.565H299.8" fill="white"/>
<path d="M299.8 206.565H301.133V191.152H374.964V205.231L299.8 205.232V206.565H301.133H299.8V207.899H377.631V188.485H298.467V207.899H299.8V206.565" fill="#477CA8"/>
<path d="M332.749 121.407H271.568C286.473 118.481 300.064 116.728 319.73 107.856H403.877C383.261 116.568 358.387 121.339 332.749 121.407Z" fill="#477CA8"/>
<path d="M332.749 121.164H271.568C286.473 119.661 300.064 118.757 319.73 114.203H403.877C383.261 118.679 358.387 121.128 332.749 121.164Z" fill="#A2BECC"/>
<path d="M332.749 121.164V119.831H271.568V121.164L271.703 122.491C286.573 120.991 300.269 120.08 320.032 115.501L319.731 114.203V115.536H403.877V114.203L403.595 112.9C383.096 117.351 358.3 119.795 332.748 119.831L332.749 121.164L332.751 122.497C358.473 122.46 383.427 120.005 404.16 115.505L403.877 112.869H319.577L319.429 112.904C299.857 117.436 286.373 118.332 271.435 119.837L271.568 122.497H332.749V121.164" fill="#477CA8"/>
<path d="M403.877 107.856H321.408V104.925H403.877V107.856Z" fill="#5493C7"/>
<path d="M256.203 121.367V118.435C280.155 118.435 303.332 113.659 321.464 104.983L322.093 107.765C303.763 116.536 280.363 121.367 256.203 121.367Z" fill="#477CA8"/>
<path d="M403.904 121.516H329.257V139.447H403.904V121.516Z" fill="white"/>
<path d="M403.904 121.516V120.181H327.924V140.78H405.237V120.181H403.904V121.516H402.571V138.113H330.59V122.849H403.904V121.516H402.571H403.904Z" fill="#477CA8"/>
<path d="M329.48 121.516H223.32V139.447H329.48V121.516Z" fill="#D8E5ED"/>
<path d="M329.48 121.516V120.181H221.987V140.78H330.813V120.181H329.48V121.516H328.147V138.113H224.653V122.849H329.48V121.516H328.147H329.48Z" fill="#477CA8"/>
<path d="M252.085 85.6827V139.461H208.529V85.6827C208.529 79.0547 203.156 73.6827 196.529 73.6827H240.085C246.712 73.6827 252.085 79.0547 252.085 85.6827Z" fill="#477CA8"/>
<path d="M252.085 85.6827H250.084V137.46H210.529V85.6827C210.528 77.9493 204.261 71.684 196.529 71.6813V75.6827H240.085C242.852 75.6827 245.34 76.7986 247.156 78.6106C248.968 80.4266 250.084 82.9147 250.084 85.6827H252.085H254.085C254.083 77.9493 247.817 71.684 240.085 71.6813H196.529V75.6827C199.297 75.6827 201.784 76.7986 203.6 78.6106C205.413 80.4266 206.528 82.9147 206.529 85.6827V141.461H254.085V85.6827H252.085Z" fill="#477CA8"/>
<path d="M268.481 244.112C268.481 248.047 265.293 251.237 261.359 251.237H48.1947C44.2573 251.237 41.0693 248.047 41.0693 244.112V98.2346C41.0693 94.2986 44.2573 91.1093 48.1947 91.1093H261.359C265.293 91.1093 268.481 94.2986 268.481 98.2346V244.112Z" fill="#D8E5ED"/>
<path d="M268.481 244.112H266.48C266.48 245.533 265.911 246.803 264.98 247.736C264.047 248.667 262.78 249.236 261.359 249.236H48.1947C46.7707 249.236 45.5027 248.667 44.5693 247.736C43.6387 246.803 43.0707 245.533 43.0693 244.112V98.2346C43.0707 96.812 43.6387 95.544 44.5693 94.6093C45.5027 93.68 46.7707 93.1107 48.1947 93.1093H261.359C262.78 93.1107 264.047 93.68 264.98 94.6093C265.911 95.544 266.48 96.812 266.48 98.2346V244.112H268.481H270.481V98.2346C270.48 93.1946 266.399 89.1107 261.359 89.1093H48.1947C43.152 89.1093 39.0693 93.1946 39.0693 98.2346V244.112C39.0693 249.151 43.152 253.236 48.1947 253.236L261.359 253.237C266.399 253.236 270.48 249.151 270.481 244.112H268.481" fill="#477CA8"/>
<path d="M257.333 232.249H52.22V101.331H257.333V232.249" fill="#A2BECC"/>
<path d="M307.549 252.109H2V243.169H307.549V252.109Z" fill="white"/>
<path d="M307.549 252.109V250.109H3.9987V245.169H305.549V252.109H307.549V250.109V252.109H309.549V241.169H0V254.109H309.549V252.109H307.549Z" fill="#477CA8"/>
<path d="M2.44922 252.109C6.05722 255.929 12.7052 257.429 17.2879 257.429H292.261C296.845 257.429 303.491 255.929 307.1 252.109H2.44922Z" fill="#D8E5ED"/>
<path d="M2.44932 252.109L0.994629 253.483C3.13863 255.741 5.99596 257.181 8.8973 258.108C11.8066 259.029 14.7813 259.427 17.288 259.429H292.261C294.769 259.427 297.743 259.029 300.652 258.108C303.553 257.181 306.409 255.741 308.555 253.483L307.1 250.109H2.44932L0.994629 253.483L2.44932 252.109V254.109H307.1V252.109L305.647 250.736C304.181 252.297 301.911 253.517 299.441 254.296C296.979 255.08 294.339 255.432 292.261 255.429H17.288C15.212 255.432 12.5693 255.08 10.108 254.296C7.63864 253.517 5.36667 252.297 3.904 250.736L2.44932 252.109V254.109V252.109Z" fill="#477CA8"/>
<path d="M134.022 243.169V244.125C134.022 245.891 135.45 247.323 137.213 247.323H172.338C174.101 247.323 175.533 245.891 175.533 244.125V243.169H134.022Z" fill="#477CA8"/>
<path d="M219.513 110.372H33.4734V219.7H219.513V110.372Z" fill="white"/>
<path d="M219.513 110.372V108.372H31.4734V221.7H221.513V108.372H219.513V110.372H217.513V217.7H35.4734V112.372H219.513V110.372H217.513H219.513Z" fill="#477CA8"/>
<path d="M219.513 122.052H33.4734V110.372H219.513V122.052Z" fill="#D8E5ED"/>
<path d="M219.513 122.052V120.719H34.8068V111.705H218.179L218.18 122.052H219.513V120.719V122.052H220.847V109.039H32.1401V123.385H220.847V122.052H219.513Z" fill="#477CA8"/>
<path d="M37.26 118.091H40.6506V114.091H37.26V118.091Z" fill="#477CA8"/>
<path d="M43.8721 118.091H47.2627V114.091H43.8721V118.091Z" fill="#477CA8"/>
<path d="M50.4854 118.091H53.8786V114.091H50.4854V118.091Z" fill="#477CA8"/>
<path d="M51.3853 162.125H126.719V159.459H51.3853V162.125Z" fill="#B5D1DE"/>
<path d="M51.3853 173.297H126.719V170.631H51.3853V173.297Z" fill="#B5D1DE"/>
<path d="M51.3853 184.468H126.719V181.801H51.3853V184.468Z" fill="#B5D1DE"/>
<path d="M51.3853 195.64H126.719V192.973H51.3853V195.64Z" fill="#B5D1DE"/>
<path d="M51.3853 206.812H116.052V204.145H51.3853V206.812Z" fill="#B5D1DE"/>
<path d="M40.9041 162.125H45.315V159.459H40.9041V162.125Z" fill="#B5D1DE"/>
<path d="M40.9041 173.297H45.315V170.631H40.9041V173.297Z" fill="#B5D1DE"/>
<path d="M40.9041 184.468H45.315V181.801H40.9041V184.468Z" fill="#B5D1DE"/>
<path d="M40.9041 195.64H45.315V192.973H40.9041V195.64Z" fill="#B5D1DE"/>
<path d="M41.5278 206.812H45.3148V204.145H41.5278V206.812Z" fill="#B5D1DE"/>
<path d="M142.435 160.48C142.435 162.023 141.183 163.275 139.641 163.275C138.097 163.275 136.847 162.023 136.847 160.48C136.847 158.937 138.097 157.685 139.641 157.685C141.183 157.685 142.435 158.937 142.435 160.48Z" fill="#F5B1AE"/>
<path d="M154.541 160.48C154.541 162.023 153.291 163.275 151.748 163.275C150.204 163.275 148.953 162.023 148.953 160.48C148.953 158.937 150.204 157.685 151.748 157.685C153.291 157.685 154.541 158.937 154.541 160.48Z" fill="#B0D9EF"/>
<path d="M142.435 172.031C142.435 173.575 141.183 174.825 139.641 174.825C138.097 174.825 136.847 173.575 136.847 172.031C136.847 170.488 138.097 169.237 139.641 169.237C141.183 169.237 142.435 170.488 142.435 172.031Z" fill="#D8E5ED"/>
<path d="M154.541 172.031C154.541 173.575 153.291 174.825 151.748 174.825C150.204 174.825 148.953 173.575 148.953 172.031C148.953 170.488 150.204 169.237 151.748 169.237C153.291 169.237 154.541 170.488 154.541 172.031Z" fill="#B2DDC9"/>
<path d="M142.435 183.583C142.435 185.125 141.183 186.377 139.641 186.377C138.097 186.377 136.847 185.125 136.847 183.583C136.847 182.039 138.097 180.789 139.641 180.789C141.183 180.789 142.435 182.039 142.435 183.583Z" fill="#D8E5ED"/>
<path d="M154.541 183.583C154.541 185.125 153.291 186.377 151.748 186.377C150.204 186.377 148.953 185.125 148.953 183.583C148.953 182.039 150.204 180.789 151.748 180.789C153.291 180.789 154.541 182.039 154.541 183.583Z" fill="#B0D9EF"/>
<path d="M142.435 195.132C142.435 196.677 141.183 197.927 139.641 197.927C138.097 197.927 136.847 196.677 136.847 195.132C136.847 193.591 138.097 192.339 139.641 192.339C141.183 192.339 142.435 193.591 142.435 195.132Z" fill="#D8E5ED"/>
<path d="M154.541 195.132C154.541 196.677 153.291 197.927 151.748 197.927C150.204 197.927 148.953 196.677 148.953 195.132C148.953 193.591 150.204 192.339 151.748 192.339C153.291 192.339 154.541 193.591 154.541 195.132Z" fill="#D8E5ED"/>
<path d="M142.435 206.685C142.435 208.227 141.183 209.479 139.641 209.479C138.097 209.479 136.847 208.227 136.847 206.685C136.847 205.14 138.097 203.891 139.641 203.891C141.183 203.891 142.435 205.14 142.435 206.685Z" fill="#B2DDC9"/>
<path d="M154.541 206.685C154.541 208.227 153.291 209.479 151.748 209.479C150.204 209.479 148.953 208.227 148.953 206.685C148.953 205.14 150.204 203.891 151.748 203.891C153.291 203.891 154.541 205.14 154.541 206.685Z" fill="#B0D9EF"/>
<path d="M58.6227 151.789V149.391C58.6227 146.739 56.4747 144.589 53.8227 144.589H45.424C42.7734 144.589 40.624 146.739 40.624 149.391V151.789H58.6227Z" fill="#B5D1DE"/>
<path d="M53.8225 136.791C53.8225 134.471 51.9425 132.591 49.6238 132.591C47.3038 132.591 45.4238 134.471 45.4238 136.791C45.4238 139.109 47.3038 140.989 49.6238 140.989C51.9425 140.989 53.8225 139.109 53.8225 136.791Z" fill="#B5D1DE"/>
<path d="M66.9414 139.904H112.941V137.237H66.9414V139.904Z" fill="#B5D1DE"/>
<path d="M66.9414 147.075H97.7346V144.408H66.9414V147.075Z" fill="#B5D1DE"/>
<path d="M182.308 122.571V147.46H225.863V122.571H182.308Z" fill="#F5B1AE"/>
<path d="M182.308 122.571H180.307V149.46H227.863V120.569H180.307V122.571H182.308V124.571H223.863V145.459H184.307L184.308 122.571H182.308V124.571V122.571Z" fill="#477CA8"/>
<path d="M232.233 129.683H176.233V117.237H232.233V129.683Z" fill="white"/>
<path d="M232.233 129.683V127.683H178.233V119.236H230.233V129.683H232.233V127.683V129.683H234.233V115.237H174.233V131.681H234.233V129.683H232.233Z" fill="#477CA8"/>
<path d="M182.308 85.6827V123.016H225.863V85.6827C225.863 79.0547 231.236 73.6827 237.863 73.6827H194.308C187.68 73.6827 182.308 79.0547 182.308 85.6827Z" fill="#F5B1AE"/>
<path d="M182.308 85.6827H180.308V125.016H227.863V85.6827C227.864 82.9147 228.979 80.4267 230.792 78.6107C232.608 76.7987 235.095 75.6827 237.863 75.6827V71.6813H194.308C186.575 71.684 180.309 77.9493 180.307 85.6827H182.308H184.308C184.308 82.9147 185.424 80.4267 187.236 78.6107C189.052 76.7987 191.54 75.6827 194.308 75.6827H237.863V71.6813C230.131 71.684 223.864 77.9493 223.863 85.6827V121.015H184.307V85.6827H182.308Z" fill="#477CA8"/>
<path d="M240.085 172.349C240.085 191.987 224.167 207.907 204.531 207.907C184.893 207.907 168.975 191.987 168.975 172.349C168.975 152.712 184.893 136.795 204.531 136.795C224.167 136.795 240.085 152.712 240.085 172.349Z" fill="white"/>
<path d="M240.085 172.349H238.085C238.084 181.621 234.332 189.999 228.257 196.077C222.179 202.153 213.803 205.905 204.531 205.905C195.257 205.905 186.881 202.153 180.803 196.077C174.727 189.999 170.975 181.621 170.975 172.349C170.975 163.076 174.727 154.7 180.803 148.621C186.881 142.547 195.257 138.795 204.531 138.795C213.803 138.795 222.179 142.547 228.257 148.621C234.332 154.7 238.084 163.076 238.085 172.349H240.085H242.085C242.084 151.607 225.272 134.795 204.531 134.793C183.788 134.795 166.976 151.607 166.973 172.349C166.975 193.092 183.788 209.904 204.531 209.907C225.272 209.904 242.084 193.092 242.085 172.349H240.085Z" fill="#477CA8"/>
<path d="M232.085 172.349C232.085 187.568 219.749 199.907 204.531 199.907C189.312 199.907 176.975 187.568 176.975 172.349C176.975 157.131 189.312 144.795 204.531 144.795C219.749 144.795 232.085 157.131 232.085 172.349Z" fill="#F5B1AE"/>
<path d="M232.085 172.349H230.085C230.084 179.412 227.228 185.789 222.6 190.42C217.969 195.048 211.593 197.905 204.531 197.905C197.467 197.905 191.091 195.048 186.459 190.42C181.831 185.789 178.975 179.412 178.975 172.349C178.975 165.285 181.831 158.909 186.459 154.279C191.091 149.651 197.467 146.795 204.531 146.795C211.593 146.795 217.969 149.651 222.6 154.279C227.228 158.909 230.084 165.285 230.085 172.349H232.085H234.085C234.084 156.024 220.855 142.795 204.531 142.793C188.205 142.795 174.975 156.024 174.973 172.349C174.976 188.672 188.205 201.904 204.531 201.907C220.855 201.904 234.084 188.672 234.085 172.349H232.085Z" fill="#477CA8"/>
<path d="M202.233 123.46H206.233V94.1266H202.233V123.46Z" fill="#477CA8"/>
<path d="M212.012 123.46H216.012V108.349H212.012V123.46Z" fill="#477CA8"/>
<path d="M192.456 123.46H196.456V108.349H192.456V123.46Z" fill="#477CA8"/>
<path d="M203.5 179L190.5 166.5L183.5 174L203.5 193.5L245.5 151.5L238.5 144L203.5 179Z" fill="#A4D768"/>
<path d="M184.771 173.635L203.26 192.122L243.956 151.428L238.3 145.771L203.26 180.809L190.427 167.977L184.771 173.635ZM203.26 195.893L181 173.635L190.427 164.207L203.26 177.039L238.3 142L247.727 151.428L203.26 195.893Z" fill="#477CA8"/>
</svg>
