<svg width="379" height="379" viewBox="0 0 379 379" fill="none" xmlns="http://www.w3.org/2000/svg">
<path d="M260.052 364.874C249.681 375.245 229.605 380.625 215.438 376.827L72.2464 338.461C58.0797 334.666 43.3824 319.969 39.5864 305.802L1.2184 162.609C-2.57893 148.442 2.80107 128.366 13.1717 117.994L117.996 13.1715C128.366 2.80221 148.442 -2.57911 162.609 1.21822L305.802 39.5849C319.969 43.3822 334.665 58.0795 338.461 72.2462L376.829 215.437C380.625 229.603 375.246 249.682 364.874 260.052L260.052 364.874Z" fill="#E7F4FC"/>
<path d="M311.164 177.38C311.421 175.19 311.586 172.981 311.586 170.718C311.586 139.666 286.414 114.484 255.352 114.484C250.085 114.484 244.996 115.257 240.154 116.62C234.642 76.4089 200.173 45.4035 158.425 45.4035C112.85 45.4035 75.9025 82.3569 75.9025 127.909C75.9025 128.096 75.9091 128.273 75.9091 128.456C50.8131 131.32 31.3145 152.609 31.3145 178.472C31.3145 206.286 53.8571 228.833 81.6691 228.833H166.418H191.209H213.412H262.79H308.168L308.206 228.724C308.929 228.781 309.645 228.833 310.381 228.833C324.6 228.833 336.124 217.306 336.124 203.084C336.124 189.13 325.021 177.789 311.164 177.38" fill="white"/>
<path d="M311.164 177.38L313.149 177.614C313.414 175.368 313.586 173.078 313.586 170.718C313.585 138.561 287.52 112.485 255.352 112.484C249.889 112.484 244.616 113.286 239.613 114.694L240.154 116.62L242.136 116.348C236.489 75.1555 201.186 43.4075 158.425 43.4035C111.744 43.4049 73.9038 81.2502 73.9025 127.909C73.9025 128.148 73.9091 128.326 73.9091 128.456H75.9091L75.6825 126.468C49.5838 129.448 29.3185 151.58 29.3145 178.472C29.3158 207.39 52.7505 230.832 81.6691 230.833H166.418H191.209H213.412H262.79H309.585L310.093 229.386L308.206 228.724L308.048 230.717C308.78 230.774 309.55 230.833 310.381 230.833C325.705 230.832 338.122 218.412 338.124 203.084C338.122 188.044 326.158 175.821 311.222 175.381L311.164 177.38L313.149 177.614L311.164 177.38L311.104 179.378C323.884 179.756 334.126 190.216 334.124 203.084C334.122 209.649 331.47 215.574 327.17 219.878C322.868 224.178 316.945 226.832 310.381 226.833C309.74 226.833 309.078 226.786 308.364 226.73L306.829 226.608L306.75 226.833H262.79H213.412H191.209H166.418H81.6691C68.3091 226.832 56.2331 221.424 47.4758 212.669C38.7238 203.91 33.3158 191.833 33.3145 178.472C33.3105 153.637 52.0425 133.192 76.1358 130.442L77.9091 130.24V128.456C77.9091 128.22 77.9011 128.044 77.9025 127.909C77.9025 105.678 86.9118 85.5649 101.488 70.9876C116.065 56.4142 136.184 47.4035 158.425 47.4035C199.16 47.3995 232.796 77.6623 238.173 116.89L238.485 119.166L240.697 118.545C245.376 117.228 250.281 116.484 255.352 116.484C270.337 116.485 283.882 122.553 293.704 132.37C303.52 142.192 309.585 155.738 309.586 170.718C309.586 172.884 309.429 175.013 309.177 177.145L308.921 179.314L311.104 179.378L311.164 177.38" fill="#477CA8"/>
<path d="M89.8225 128.433L89.8158 127.917L89.8145 127.791L89.7985 127.675L87.8691 127.933H89.8158C89.8131 127.734 89.7971 127.677 89.7985 127.675L87.8691 127.933H89.8158C89.8158 121.289 90.7625 114.872 92.5265 108.8C100.828 80.2435 127.233 59.3088 158.425 59.3142V55.3142C125.405 55.3195 97.4731 77.4528 88.6851 107.683C86.8171 114.113 85.8158 120.909 85.8158 127.933C85.8185 128.136 85.8345 128.198 85.8331 128.203L87.8158 127.939L85.8158 127.962L85.8225 128.478L89.8225 128.433" fill="#B0D9EF"/>
<path d="M45.2278 178.472C45.2278 159.933 59.0958 144.378 77.4878 142.278L77.0345 138.305C56.6211 140.636 41.2278 157.904 41.2278 178.472H45.2278Z" fill="#B0D9EF"/>
<path d="M228.388 290.162H231.054V285.273H228.388V290.162ZM228.388 299.939H231.054V295.05H228.388V299.939ZM228.388 309.717H231.054V304.829H228.388V309.717ZM228.388 319.495H231.054V314.606H228.388V319.495Z" fill="#477CA8"/>
<path d="M228.388 324.382V325.716H227.054V328.382H231.054V324.382H228.388Z" fill="#477CA8"/>
<path d="M221.898 325.716H216.742V328.382H221.898V325.716ZM211.588 325.716H206.432V328.382H211.588V325.716ZM201.276 325.716H196.12V328.382H201.276V325.716ZM190.965 325.716H185.809V328.382H190.965V325.716ZM180.653 325.716H175.498V328.382H180.653V325.716ZM170.343 325.716H165.186V328.382H170.343V325.716ZM160.032 325.716H154.876V328.382H160.032V325.716Z" fill="#477CA8"/>
<path d="M243.77 74.3822H238.517V77.0488H243.77V74.3822ZM233.264 74.3822H228.012V77.0488H233.264V74.3822ZM222.758 74.3822H217.505V77.0488H222.758V74.3822ZM212.252 74.3822H206.999V77.0488H212.252V74.3822ZM201.745 74.3822H196.491V77.0488H201.745V74.3822ZM191.24 74.3822H185.987V77.0488H191.24V74.3822ZM180.733 74.3822H175.479V77.0488H180.733V74.3822ZM170.226 74.3822H164.973V77.0488H170.226V74.3822Z" fill="#477CA8"/>
<path d="M159.721 74.3822H155.721V78.3822H158.388V77.0489H159.721V74.3822Z" fill="#477CA8"/>
<path d="M155.721 88.6941H158.388V83.5379H155.721V88.6941ZM155.721 99.0048H158.388V93.8501H155.721V99.0048ZM155.721 109.317H158.388V104.161H155.721V109.317ZM155.721 119.627H158.388V114.471H155.721V119.627ZM155.721 129.938H158.388V124.783H155.721V129.938ZM155.721 140.25H158.388V135.094H155.721V140.25ZM155.721 150.561H158.388V145.405H155.721V150.561Z" fill="#477CA8"/>
<path d="M108.926 276.638C101.974 276.638 96.3372 271.002 96.3372 264.046V154.937C96.3372 147.981 101.974 142.346 108.926 142.346H268.396C275.348 142.346 280.985 147.981 280.985 154.937V264.046C280.985 271.002 275.348 276.638 268.396 276.638H108.926Z" fill="#A8D1BF"/>
<path d="M108.926 276.638V274.638C105.996 274.637 103.362 273.456 101.44 271.536C99.5198 269.613 98.3385 266.978 98.3372 264.046V154.937C98.3385 152.005 99.5198 149.37 101.44 147.447C103.362 145.527 105.996 144.346 108.926 144.346H268.396C271.325 144.346 273.96 145.527 275.882 147.447C277.802 149.37 278.984 152.005 278.985 154.937V264.046C278.984 266.978 277.802 269.613 275.882 271.536C273.96 273.456 271.325 274.637 268.396 274.638L108.926 274.637V276.638V278.638H268.396C276.453 278.637 282.984 272.108 282.985 264.046V154.937C282.984 146.875 276.453 140.348 268.396 140.346H108.926C100.869 140.348 94.3385 146.875 94.3372 154.937V264.046C94.3385 272.108 100.869 278.637 108.926 278.637V276.638" fill="#477CA8"/>
<path d="M188.66 142.346H108.926C101.974 142.346 96.3372 147.981 96.3372 154.937V264.046C96.3372 271.002 101.974 276.638 108.926 276.638H188.66" fill="#B2DDC9"/>
<path d="M188.66 140.346H108.926C100.869 140.348 94.3385 146.875 94.3372 154.937V264.046C94.3385 272.108 100.869 278.637 108.926 278.637L188.66 278.638V274.638L108.926 274.637C105.996 274.637 103.362 273.456 101.44 271.536C99.5198 269.613 98.3385 266.978 98.3372 264.046V154.937C98.3385 152.005 99.5198 149.37 101.44 147.447C103.362 145.527 105.996 144.346 108.926 144.346H188.66V140.346Z" fill="#477CA8"/>
<path d="M188.66 268.245H104.73V150.739H188.66V268.245Z" fill="white"/>
<path d="M188.66 268.245V266.91H106.064V152.073H187.326V268.245H188.66V266.91V268.245H189.993V149.406H103.397V269.578H189.993V268.245H188.66Z" fill="#477CA8"/>
<path d="M272.592 268.245H188.66V150.739H272.592V268.245Z" fill="#A2BECC"/>
<path d="M272.592 268.245V266.911H189.993V152.071H271.257L271.258 268.245H272.592V266.911V268.245H273.925V149.406H187.326V269.577H273.925V268.245H272.592" fill="#477CA8"/>
<path d="M260.002 280.833L188.66 268.245V150.74L260.002 138.15V280.833Z" fill="#B5D1DE"/>
<path d="M260.002 280.833L260.234 279.519L189.993 267.125V151.858L258.669 139.739V280.833H260.002L260.234 279.519L260.002 280.833H261.336V136.561L187.326 149.621V269.362L261.336 282.422V280.833H260.002" fill="#477CA8"/>
<path d="M239.018 285.03L188.66 268.245V150.739L239.018 133.953V285.03Z" fill="#D8E5ED"/>
<path d="M239.018 285.03L239.44 283.766L189.993 267.283V151.699L237.685 135.802V285.03H239.018L239.44 283.766L239.018 285.03H240.352V132.102L187.326 149.778V269.205L240.352 286.881V285.03H239.018" fill="#477CA8"/>
<path d="M113.115 170.377H177.781V167.71H113.115V170.377Z" fill="#B0D9EF"/>
<path d="M113.115 177.901H177.781V175.234H113.115V177.901Z" fill="#B0D9EF"/>
<path d="M113.115 185.423H177.781V182.757H113.115V185.423Z" fill="#B0D9EF"/>
<path d="M113.115 192.95H177.781V190.283H113.115V192.95Z" fill="#B0D9EF"/>
<path d="M113.115 200.473H177.781V197.806H113.115V200.473Z" fill="#B0D9EF"/>
<path d="M113.115 207.997H177.781V205.33H113.115V207.997Z" fill="#B0D9EF"/>
<path d="M113.115 215.521H177.781V212.854H113.115V215.521Z" fill="#B0D9EF"/>
<path d="M113.115 223.044H177.781V220.377H113.115V223.044Z" fill="#B0D9EF"/>
<path d="M330.977 111.156L339.744 102.401L322.544 85.2022L313.789 93.9689L330.977 111.156Z" fill="#D8E5ED"/>
<path d="M330.977 111.156L332.39 112.57L342.573 102.401L322.542 82.3728L310.962 93.9689L330.976 113.984L332.39 112.57L330.977 111.156L332.392 109.742L316.617 93.9675L322.544 88.0315L336.914 102.4L329.564 109.741L330.977 111.156L332.392 109.742L330.977 111.156" fill="#477CA8"/>
<path d="M263.92 92.9421C256.22 85.2341 251.978 74.9995 251.984 64.1301C251.98 53.2341 256.238 42.9888 263.98 35.2808C271.688 27.6141 281.906 23.3875 292.738 23.3902C315.201 23.4035 333.488 41.6821 333.474 64.1475C333.476 75.0515 329.202 85.3048 321.468 93.0155C313.762 100.685 303.553 104.896 292.722 104.896C281.852 104.898 271.62 100.655 263.92 92.9421" fill="#D8E5ED"/>
<path d="M263.92 92.9421L265.334 91.5288C258.008 84.1902 253.986 74.4915 253.984 64.1515L253.982 64.1355L252.074 64.1462L253.953 64.4835C253.99 64.2661 253.981 64.1515 253.982 64.1355L252.074 64.1462L253.953 64.4835L253.994 64.2528L253.981 64.0182L252.298 64.1128H253.984L253.981 64.0182L252.298 64.1128H253.984C253.988 53.7462 258.024 44.0368 265.39 36.6981C272.73 29.4021 282.421 25.3928 292.738 25.3902C314.085 25.3982 331.478 42.7782 331.474 64.1235H332.889L331.474 64.1088V64.1235H332.889L331.474 64.1088C331.474 64.1155 331.472 64.1835 331.48 64.3048L333.474 64.1475H331.474C331.47 74.5301 327.418 84.2528 320.056 91.5981C312.717 98.8981 303.033 102.892 292.722 102.896C282.366 102.892 272.668 98.8688 265.336 91.5288L263.92 92.9421L262.504 94.3555C270.568 102.437 281.324 106.898 292.722 106.896C304.072 106.898 314.809 102.47 322.878 94.4328C330.982 86.3568 335.477 75.5781 335.474 64.1475V64.0701L335.468 63.9915L333.632 64.1355H335.474L335.468 63.9915L333.632 64.1355H335.474H334.062L335.474 64.1501V64.1355H334.062L335.474 64.1501V64.1235C335.47 40.5582 316.301 21.4075 292.74 21.3902C281.378 21.3875 270.638 25.8315 262.569 33.8635C254.46 41.9315 249.98 52.6995 249.984 64.1128L249.988 64.2408L251.984 64.1301L250.016 63.7755C249.989 63.9275 249.985 64.0355 249.984 64.0968L249.982 64.1568L249.984 64.1622L251.548 64.1515H249.984V64.1622L251.548 64.1515H249.984C249.98 75.5355 254.44 86.2875 262.505 94.3555L263.92 92.9421" fill="#477CA8"/>
<path d="M292.646 96.4035C301.314 96.4208 309.437 93.0675 315.542 86.9689C328.133 74.3929 328.14 53.9209 315.55 41.3409C309.48 35.2675 301.4 31.9155 292.79 31.9008C284.136 31.8795 276.012 35.2315 269.917 41.3249C263.825 47.4142 260.468 55.5102 260.47 64.1475C260.465 72.7728 263.821 80.8849 269.9 86.9715C275.965 93.0382 284.036 96.3902 292.646 96.4035" fill="white"/>
<path d="M292.646 96.4035V97.7368L292.716 97.7355C301.702 97.7382 310.15 94.2408 316.484 87.9115C323.04 81.3648 326.324 72.7528 326.322 64.1528C326.324 55.5555 323.044 46.9448 316.492 40.3968C310.178 34.0782 301.748 30.5808 292.793 30.5675H292.71C283.74 30.5648 275.294 34.0595 268.974 40.3822C262.638 46.7102 259.134 55.1555 259.137 64.1355H260.312L259.137 64.1129V64.1355H260.312L259.137 64.1129C259.138 64.1142 259.13 64.1995 259.152 64.3475L260.47 64.1475L259.138 64.0902L259.137 64.1702C259.134 73.1342 262.636 81.5875 268.957 87.9129C275.265 94.2275 283.688 97.7248 292.644 97.7368L292.646 96.4035L292.648 95.0701C284.382 95.0555 276.664 91.8488 270.844 86.0275C265.016 80.1915 261.805 72.4395 261.804 64.1702H260.985L261.802 64.2062V64.1702H260.985L261.802 64.2062L261.808 64.0755L261.789 63.9489L260.513 64.1422H261.804L261.789 63.9489L260.513 64.1422H261.804H260.628L261.804 64.1648V64.1422H260.628L261.804 64.1648V64.1355C261.806 55.8488 265.018 48.1102 270.86 42.2689C276.692 36.4395 284.432 33.2355 292.71 33.2328L292.786 33.2342C301.052 33.2515 308.781 36.4568 314.606 42.2835C320.641 48.3155 323.653 56.2275 323.654 64.1528C323.653 72.0795 320.637 79.9942 314.6 86.0248C308.753 91.8595 301.01 95.0675 292.716 95.0688L292.646 95.0701V96.4035Z" fill="#477CA8"/>
<path d="M311.222 45.6661C306.314 40.7541 299.741 38.0235 292.778 38.0155H292.782L292.714 38.0141C285.741 38.0115 279.156 40.7355 274.244 45.6528L277.073 48.4808C281.252 44.3075 286.778 42.0181 292.714 42.0141L292.768 42.0155H292.772C298.697 42.0275 304.216 44.3221 308.393 48.4941L311.222 45.6661" fill="#B0D9EF"/>
<path d="M355.222 141.887L356.636 143.302L373.297 126.639L337.22 90.5647L319.148 108.639L355.221 144.715L356.636 143.302L355.222 141.887L356.636 140.473L324.804 108.639L337.22 96.2208L367.641 126.639L353.808 140.473L355.222 141.887L356.636 140.473L355.222 141.887" fill="#477CA8"/>
<path d="M355.222 141.888L370.469 126.64L342.936 99.1089L327.69 114.357L355.222 141.888" fill="#B0D9EF"/>
<path d="M355.222 141.888L356.165 142.83L372.354 126.639L342.935 97.2222L325.805 114.356L355.221 143.773L356.165 142.83L355.222 141.888L356.165 140.945L329.576 114.356L342.935 100.994L368.584 126.639L354.279 140.945L355.222 141.888L356.165 140.945L355.222 141.888Z" fill="#477CA8"/>
<path d="M351.79 126.738L333.37 108.322L331.485 110.208L349.905 128.625" fill="#477CA8"/>
<path d="M359.788 142.973C366.285 142.973 371.554 137.705 371.556 131.202C370.614 130.262 369.673 129.322 368.73 128.379C364.808 132.305 360.886 136.229 356.962 140.147C357.901 141.087 358.844 142.03 359.788 142.973Z" fill="#D8E5ED"/>
<path d="M359.788 142.973V144.973C367.391 144.971 373.552 138.81 373.556 131.203V130.373L372.968 129.787C372.028 128.847 371.088 127.909 370.145 126.965L368.731 125.551L367.317 126.965C363.393 130.89 359.472 134.814 355.549 138.733L354.135 140.146L355.548 141.561C356.487 142.502 357.431 143.445 358.375 144.389L358.961 144.973H359.788V142.973L361.201 141.558C360.259 140.617 359.316 139.674 358.379 138.734L356.963 140.147L358.376 141.562C362.3 137.642 366.221 133.718 370.145 129.794L368.731 128.379L367.317 129.794C368.26 130.737 369.2 131.677 370.143 132.618L371.556 131.202H369.556C369.556 136.601 365.179 140.974 359.788 140.973V142.973L361.201 141.558L359.788 142.973" fill="#477CA8"/>
<path d="M301.476 55.3929C301.476 50.7995 297.755 47.0902 293.18 47.0902C288.597 47.0902 284.877 50.7995 284.877 55.3929C284.877 58.4169 286.504 61.0515 288.923 62.4995L285.751 82.9421H291.892H300.593L297.431 62.4995C299.849 61.0515 301.476 58.4169 301.476 55.3929" fill="#B0D9EF"/>
<path d="M64.5 353.5V205H146.5L169 228.5V353.5H64.5Z" fill="white"/>
<path d="M103.675 275.667H101.008V274.583L90.3426 247.327L79.6759 274.583V275.665H77.0093V274.081L90.3426 240.009L103.675 274.081V275.667Z" fill="#477CA8"/>
<path d="M135.676 273.001H147.252C150.811 273.001 153.705 270.108 153.705 266.549C153.705 262.992 150.811 260.096 147.252 260.096H135.676V273.001ZM147.252 275.668H133.009V257.429H147.252C152.281 257.429 156.372 261.521 156.372 266.549C156.372 271.577 152.281 275.668 147.252 275.668Z" fill="#477CA8"/>
<path d="M135.676 257.429H147.252C150.811 257.429 153.705 254.535 153.705 250.976C153.705 247.419 150.811 244.524 147.252 244.524H135.676V257.429ZM147.252 260.096H133.009V241.857H147.252C152.281 241.857 156.372 245.948 156.372 250.976C156.372 256.005 152.281 260.096 147.252 260.096Z" fill="#477CA8"/>
<path d="M117.009 246.336H114.343V243.669H117.009V246.336ZM117.009 251.669H114.343V249.003H117.009V251.669ZM117.009 257.003H114.343V254.336H117.009V257.003ZM117.009 262.336H114.343V259.669H117.009V262.336ZM117.009 267.669H114.343V265.003H117.009V267.669ZM117.009 273.003H114.343V270.336H117.009V273.003ZM117.009 278.336H114.343V275.669H117.009V278.336ZM117.009 283.669H114.343V281.003H117.009V283.669ZM117.009 289.003H114.343V286.336H117.009V289.003ZM117.009 294.336H114.343V291.669H117.009V294.336ZM117.009 299.669H114.343V297.003H117.009V299.669ZM117.009 305.003H114.343V302.336H117.009V305.003ZM117.009 310.336H114.343V307.669H117.009V310.336ZM117.009 315.669H114.343V313.003H117.009V315.669ZM117.009 321.003H114.343V318.336H117.009V321.003ZM117.009 326.336H114.343V323.669H117.009V326.336ZM117.009 331.669H114.343V329.003H117.009V331.669ZM117.009 337.003H114.343V334.336H117.009V337.003ZM117.009 342.328H114.343V339.669H117.009V342.328Z" fill="#477CA8"/>
<path d="M97.008 218.333H78.3413V215.667H97.008V218.333Z" fill="#477CA8"/>
<path d="M97.008 223.667H78.3413V221H97.008V223.667Z" fill="#477CA8"/>
<path d="M154.369 288.996H135.703V286.329H154.369V288.996Z" fill="#477CA8"/>
<path d="M154.369 302.337H135.703V299.671H154.369V302.337Z" fill="#477CA8"/>
<path d="M154.369 315.679H135.703V313.012H154.369V315.679Z" fill="#477CA8"/>
<path d="M154.369 329.02H135.703V326.353H154.369V329.02Z" fill="#477CA8"/>
<path d="M133.028 288.996H130.361V286.329H133.028V288.996Z" fill="#477CA8"/>
<path d="M133.028 302.337H130.361V299.671H133.028V302.337Z" fill="#477CA8"/>
<path d="M133.028 315.679H130.361V313.012H133.028V315.679Z" fill="#477CA8"/>
<path d="M133.028 329.02H130.361V326.353H133.028V329.02Z" fill="#477CA8"/>
<path d="M102.339 288.996H83.672V286.329H102.339V288.996Z" fill="#477CA8"/>
<path d="M102.339 302.337H83.672V299.671H102.339V302.337Z" fill="#477CA8"/>
<path d="M102.339 315.679H83.672V313.012H102.339V315.679Z" fill="#477CA8"/>
<path d="M102.339 329.02H83.672V326.353H102.339V329.02Z" fill="#477CA8"/>
<path d="M80.9974 288.996H78.3307V286.329H80.9974V288.996Z" fill="#477CA8"/>
<path d="M80.9974 302.337H78.3307V299.671H80.9974V302.337Z" fill="#477CA8"/>
<path d="M80.9974 315.679H78.3307V313.012H80.9974V315.679Z" fill="#477CA8"/>
<path d="M80.9974 329.02H78.3307V326.353H80.9974V329.02Z" fill="#477CA8"/>
<path d="M50.3319 278.333L52.9986 281L52.4133 323.667V350.333C52.4133 353.839 55.4359 356.652 59.0119 356.304C62.1293 356 64.4133 353.199 64.4133 350.067V275.667H47.6653C44.7199 275.667 50.3319 278.333 50.3319 278.333" fill="#A4D768"/>
<path d="M43.6667 312.997H51.7467V282.333C51.7467 280.128 49.9533 278.333 47.7467 278.333C45.46 278.333 43.6667 280.128 43.6667 282.333V312.997ZM58.4134 357C54.7374 357 51.7467 354.009 51.7467 350.333V315.664H41V282.333C41 278.659 43.9907 275.667 47.6667 275.667C51.4227 275.667 54.4133 278.659 54.4133 282.333V350.333C54.4133 352.539 56.208 354.333 58.4134 354.333V357Z" fill="#477CA8"/>
<path d="M170.335 254.221V230.221H146.335L170.335 254.221Z" fill="#DEDEDD"/>
<path d="M146.335 206.333V230.333H170.335L146.335 206.333Z" fill="#A4D768"/>
<path d="M63.6641 354.333H165.001C167.207 354.333 169.001 352.539 169.001 350.333V230.885L145.783 207.667H65.0014V350.333C65.0014 351.832 64.5027 353.219 63.6641 354.333ZM165.001 357H58.3347V354.333C60.5401 354.333 62.3347 352.539 62.3347 350.333V205H146.887L171.668 229.781V350.333C171.668 354.009 168.676 357 165.001 357Z" fill="#477CA8"/>
<path d="M130 339.5H194.5" stroke="#FFE607" stroke-width="4"/>
<path d="M132.275 341.025H193.065C193.8 341.025 194.399 340.427 194.399 339.692C194.399 338.956 193.8 338.359 193.065 338.359H132.275L130.941 339.692L132.275 341.025ZM193.065 343.692H131.171L127.171 339.692L131.171 335.692H193.065C195.271 335.692 197.065 337.485 197.065 339.692C197.065 341.897 195.271 343.692 193.065 343.692Z" fill="#477CA8"/>
<path d="M99.676 269H80.344V266.333H99.676V269Z" fill="#477CA8"/>
</svg>
